<svg width="22" height="25" viewBox="0 0 22 25" fill="none" xmlns="http://www.w3.org/2000/svg">
<path d="M21 2V1H20H2H1V2V23V24H2H20H21V23V2Z" fill="black" stroke="white" stroke-width="2"/>
<path d="M8.37096 5.97753H6.80144V9.9582H5.54079V5.97753H4V5.06718H8.37096V5.97753Z" fill="white"/>
<path d="M13.234 7.61347C13.234 8.09047 13.1394 8.51262 12.9502 8.87989C12.7611 9.24716 12.4917 9.53046 12.1421 9.72977C11.7949 9.92684 11.3987 10.0254 10.9533 10.0254C10.508 10.0254 10.1129 9.9302 9.76809 9.73985C9.42329 9.54725 9.15393 9.27292 8.95998 8.91684C8.76843 8.56076 8.66786 8.15206 8.65829 7.69073V7.41527C8.65829 6.93603 8.75167 6.51388 8.93843 6.14885C9.12759 5.78158 9.39696 5.49828 9.74654 5.29897C10.0985 5.09966 10.4984 5 10.9461 5C11.3891 5 11.7842 5.09854 12.1313 5.29561C12.4785 5.49268 12.7479 5.77374 12.9395 6.13877C13.1334 6.50157 13.2316 6.91811 13.234 7.3884V7.61347ZM11.9518 7.40855C11.9518 6.92259 11.8644 6.5542 11.6896 6.30337C11.5172 6.05031 11.2694 5.92378 10.9461 5.92378C10.314 5.92378 9.97999 6.3672 9.94407 7.25403L9.94048 7.61347C9.94048 8.09271 10.0255 8.46111 10.1955 8.71865C10.3655 8.97619 10.6181 9.10496 10.9533 9.10496C11.2718 9.10496 11.5172 8.97843 11.6896 8.72537C11.862 8.47231 11.9494 8.10839 11.9518 7.63362V7.40855Z" fill="white"/>
<path d="M15.1447 8.29875V9.9582H13.884V5.06718H15.9708C16.3706 5.06718 16.7238 5.13661 17.0303 5.27546C17.3391 5.41206 17.5774 5.60802 17.745 5.86332C17.915 6.11638 18 6.40415 18 6.72663C18 7.20364 17.8168 7.58547 17.4505 7.87213C17.0865 8.15654 16.5861 8.29875 15.9492 8.29875H15.1447ZM15.1447 7.3884H15.9708C16.215 7.3884 16.4005 7.33129 16.5275 7.21708C16.6567 7.10287 16.7214 6.94162 16.7214 6.73335C16.7214 6.50493 16.6556 6.32241 16.5239 6.1858C16.3922 6.04919 16.2126 5.97977 15.9851 5.97753H15.1447V7.3884Z" fill="white"/>
<path d="M9.12 19.8955H7.23163V14.2729L5.37677 14.7798V13.4421L8.94681 12.2873H9.12V19.8955Z" fill="white"/>
<path d="M17.221 16.7864C17.221 17.814 16.9733 18.6065 16.478 19.1639C15.9863 19.7213 15.2917 20 14.394 20C13.489 20 12.7887 19.7196 12.2934 19.1587C11.798 18.5978 11.5503 17.8071 11.5503 16.7864V15.3964C11.5503 14.3687 11.7961 13.5762 12.2878 13.0188C12.7832 12.4614 13.4815 12.1827 14.3829 12.1827C15.2842 12.1827 15.9826 12.4632 16.478 13.024C16.9733 13.5849 17.221 14.3774 17.221 15.4016V16.7864ZM15.3382 15.1717C15.3382 14.6248 15.2619 14.2172 15.1092 13.9489C14.9565 13.6772 14.7144 13.5414 14.3829 13.5414C14.0588 13.5414 13.8223 13.6668 13.6733 13.9176C13.5281 14.1684 13.4499 14.5481 13.4387 15.0567V17.0006C13.4387 17.5684 13.515 17.9847 13.6678 18.2495C13.8205 18.5107 14.0626 18.6414 14.394 18.6414C14.7144 18.6414 14.9509 18.5142 15.1036 18.2599C15.2563 18.0021 15.3345 17.5998 15.3382 17.0529V15.1717Z" fill="white"/>
</svg>
